<?xml version="1.0" encoding="utf-8"?>
<!-- Generator: Adobe Illustrator 24.0.1, SVG Export Plug-In . SVG Version: 6.00 Build 0)  -->
<svg version="1.1" id="Layer_1" xmlns="http://www.w3.org/2000/svg" xmlns:xlink="http://www.w3.org/1999/xlink" x="0px" y="0px"
	 viewBox="0 0 1920 583.1" style="enable-background:new 0 0 1920 583.1;" xml:space="preserve">
<style type="text/css">
	.st0{opacity:0.43;fill:#7510F7;enable-background:new    ;}
	.st1{opacity:0.24;fill:#7510F7;enable-background:new    ;}
	.st2{fill:#7510F7;}
</style>
<g id="Background">
	<path class="st0" d="M0,188.9c205.1,1.7,291.8,63.6,332.5,122.4c25,36.1,27.4,63.5,64,94.3c74.6,62.8,180,46.1,256,32.8
		c76.8-13.3,131.3-37,237-83.7c182.2-80.5,204.3-112.3,276-114.4c109.1-3.2,146.1,73.4,239,104.9c99.7,33.8,257.8,17.2,515.5-198.2
		c0.1,53.6,0.2,107.2,0.3,160.8c0.1,91.8,0,183.5-0.3,275.3c-640,0-1280,0-1920,0c0-122.2,0-244.4,0-366.6C0,207.3,0,198.1,0,188.9z
		"/>
	<path class="st1" d="M0,166.3c205.1,1.8,291.8,67.2,332.5,129.4c25,38.2,27.4,67.2,64,99.7c74.6,66.4,180,48.7,256,34.7
		c76.8-14.1,131.3-39.1,237-88.5c182.2-85.1,204.3-118.8,276-121c109.7-3.4,144.1,79.8,239,110.9c95,31.2,251.4,14.1,515.5-223.5
		c0.1,61.3,0.2,122.7,0.3,184c0,97,0,194-0.3,291c-640,0-1280,0-1920,0c0-129.2,0-258.4,0-387.6C0,185.8,0,176.1,0,166.3z"/>
	<path class="st2" d="M0,212.1c205.1,1.6,291.8,60,332.5,115.5c25,34.1,27.4,59.9,64,89c74.6,59.3,180,43.5,256,31
		c21.2-3.5,81.9-14.4,237-79C1083,288,1102.6,257.5,1175,259c105.5,2.1,140.1,68.5,229.5,100.6c97.8,35.2,255.4,27.3,515.5-169.6
		c0.1,44.8,0.2,89.6,0.3,134.3c0.1,86.6,0,173.2-0.3,259.8c-640,0-1280,0-1920,0c0-115.3,0-230.7,0-346C0,229.4,0,220.8,0,212.1z"/>
</g>
</svg>
