<svg id="Layer_1" data-name="Layer 1" xmlns="http://www.w3.org/2000/svg" viewBox="0 0 579.4 65.35"><defs><style>.cls-1,.cls-2,.cls-3{fill:#013870;}.cls-1,.cls-4{opacity:0.47;}.cls-3,.cls-5{opacity:0.24;}</style></defs><title>background2</title><path class="cls-1" d="M0,8.43v48.5c128.2-46,221.9-45,284.79-34.82,28.13,4.54,57.57,12.12,106.47,15.32A652.55,652.55,0,0,0,579.4,22.11V8.43"/><path class="cls-2" d="M0,0V48.5C127.52,3.22,221.32,3.81,284.79,13.68c26,4,51.41,10.34,95,13.79A684.18,684.18,0,0,0,579.4,13.68V0"/><path class="cls-3" d="M0,0V65.35c127-42.68,221.23-43,284.79-34.82,18.24,2.35,28.68,4.72,52.85,7.66A788.36,788.36,0,0,0,579.4,30.53V0"/></svg>