<svg id="Layer_1" data-name="Layer 1" xmlns="http://www.w3.org/2000/svg" viewBox="0 0 1920.5 215.5"><defs><style>.cls-1,.cls-2,.cls-3{fill:#013870;}.cls-1{opacity:0.43;}.cls-1,.cls-2{isolation:isolate;}.cls-2{opacity:0.24;}</style></defs><title>background3</title><g id="Background"><path class="cls-1" d="M0,135.86V.37H1920q.3,101.73.5,203.45c-263.4-113.38-420.8-125.51-516-115.53-89.8,9.43-125.9,40-239,38.77-71.7-.78-93.8-12.53-276-42.28-105.7-17.26-160.2-26-237-30.93-76-4.92-181.4-11.09-256,12.12-36.6,11.38-39,21.51-64,34.85C291.8,122.55,205.1,145.43,0,146.06Z" transform="translate(0 0)"/><path class="cls-2" d="M0,143.65V.41H1920q.3,107.54.5,215.09c-263.4-119.89-420.8-132.68-516-122.15-89.8,10-125.9,42.28-239,41-71.7-.81-93.8-13.27-276-44.72-105.7-18.26-160.2-27.49-237-32.71-76-5.17-181.4-11.71-256,12.83-36.6,12-39,22.73-64,36.85-40.7,23-127.4,47.15-332.5,47.82Z" transform="translate(0 0)"/><path class="cls-3" d="M0,127.87V0H1920q.3,96,.5,192c-263.4-107-420.8-118.44-516-109-89.8,8.91-125.9,37.73-239,36.59-71.7-.74-93.8-11.83-276-39.92C783.8,63.35,729.3,55.1,652.5,50.45c-76-4.62-181.4-10.46-256,11.45-36.6,10.76-39,20.29-64,32.9C291.8,115.31,205.1,136.89,0,137.48Z" transform="translate(0 0)"/></g></svg>