<svg id="Layer_1" data-name="Layer 1" xmlns="http://www.w3.org/2000/svg" viewBox="0 0 1920.4 582.1"><defs><style>.cls-1,.cls-2,.cls-3{fill:#013870;}.cls-2{opacity:0.47;}.cls-2,.cls-3{isolation:isolate;}.cls-3{opacity:0.24;}</style></defs><title>background_landing</title><path class="cls-1" d="M0,131.7c205.1,1.4,291.8,52.3,332.5,100.5,25,29.7,27.4,52.2,64,77.5,74.6,51.6,180,37.8,256,27,76.8-10.9,131.3-30.4,237-68.8,182.2-66.2,204.3-92.2,276-94,113.1-2.7,149.2,65.2,239,86.2,95.2,22.2,252.6-4.8,515.9-256.9q-.15,113.1-.2,226.1-.15,107.25-.2,214.5L0,528.6Q2.66,341.35.3,154.2.16,143,0,131.7Z" transform="translate(0 -1)"/><path class="cls-2" d="M0,110.6C206.3,98,292.3,150.2,332.5,201.2c27.2,34.5,26.7,60.1,64,90.1,74.6,60,180,44,256,31.4,76.8-12.7,131.3-35.4,237-80C1040.53,179,1081.56,147.23,1132,137a161.42,161.42,0,0,1,33.49-3.64c112.65-2.24,155.08,95.42,269.22,112.07,28.06,4.1,47.81,1.45,83.58-3.34,186.63-25,348.48-185,401.7-241.13q.27,98.43.3,196.9,0,130.89-.3,261.76L0,556.17Z" transform="translate(0 -1)"/><path class="cls-3" d="M0,85.9c206.2-18.4,292.8,29.3,332.4,81.5,29.5,38.8,25.2,67.8,64,103.7,74.6,69.1,180,50.7,256,36.2,76.8-14.6,131.3-40.7,237-92.1C1101.71,112,1106.05,92.84,1165.4,89.3c132.17-7.89,174.41,92.75,299.28,119.13C1561.2,228.81,1707,204.83,1920.4,3.2q-.27,80.15-.4,160.3-.27,160.62,0,321.2L0,583.1Q0,440,0,296.91,0,191.42,0,85.9Z" transform="translate(0 -1)"/></svg>