<?xml version="1.0" encoding="utf-8"?>
<!-- Generator: Adobe Illustrator 24.0.1, SVG Export Plug-In . SVG Version: 6.00 Build 0)  -->
<svg version="1.1" id="Layer_1" xmlns="http://www.w3.org/2000/svg" xmlns:xlink="http://www.w3.org/1999/xlink" x="0px" y="0px"
	 viewBox="0 0 1920 583.1" style="enable-background:new 0 0 1920 583.1;" xml:space="preserve">
<style type="text/css">
	.st0{fill:#B4C1FF;}
	.st1{fill:#9482F4;}
	.st2{fill:#945BF4;}
	.st3{fill:#9432F4;}
</style>
<path class="st0" d="M0,303.4c270.7-87.6,445.7-56.2,557.8-7.7c87.9,38.1,113.1,76.5,211.4,96.5C881,415,958,387.8,1193.5,323.3
	c260.2-71.2,279.1-77.3,346.2-90.4c160.6-31.3,294.5-35.1,380.3-33.7c0,19.9,0,39.8,0,59.7c-66.7-13.8-124.2-16.6-167.4-15.9
	c-19.2,0.3-70.5,1.8-136.3,14.4c-63.3,12.1-104.1,27.5-140.9,39.8c-94.4,31.6-92.9,19.9-272.7,64.3c-175.5,43.4-181.1,55.7-265,64.3
	c-67.6,7-128.6,12.8-203.7-6.1C650,398.7,648.3,372,542.5,334c-25.1-9-105-36.2-212.9-44.4c-105.9-8.1-189,5.8-228.3,13.8
	C59.7,311.9,25.3,322.3,0,331C0,321.8,0,312.6,0,303.4z"/>
<path class="st1" d="M0,329.1c270.7-87.6,445.7-56.2,557.8-7.7c87.9,38.1,113.1,76.5,211.4,96.5C881,440.7,958,413.5,1193.5,349
	c260.2-71.2,279.1-77.3,346.2-90.4c160.6-31.3,294.5-35.1,380.3-33.7c0,19.9,0,39.8,0,59.7c-66.7-13.8-124.2-16.6-167.4-15.9
	c-19.2,0.3-70.5,1.8-136.3,14.4c-63.3,12.1-104.1,27.5-140.9,39.8c-94.4,31.6-92.9,19.9-272.7,64.3c-175.5,43.4-181.1,55.7-265,64.3
	c-67.6,7-128.6,12.8-203.7-6.1c-83.9-21.1-85.7-47.9-191.5-85.8c-25.1-9-105-36.2-212.9-44.4c-105.9-8.1-189,5.8-228.3,13.8
	C59.7,337.6,25.3,348,0,356.7C0,347.5,0,338.3,0,329.1z"/>
<path class="st2" d="M294.3,300.3c63.3,1,140.4,2.2,222.1,39.8c63,29,101.1,50.6,101.1,50.6c13.6,7.7,47.7,26.6,96.1,44.7
	c1.2,0.4,2.3,0.8,3.4,1.2c73.2,25,137.5,21.7,169.9,19.7c42.1-2.6,80.7-12.4,157.9-31.9c40.6-10.3,65.5-17.8,104.2-29.1
	c47.6-13.9,166.2-48.1,291.1-79.7c74.7-18.9,112.9-28.5,156.3-35.2c32.6-5.1,88.2-12.8,157.8-15.3c47.8-1.7,103.6-1.1,165.8,4.6
	c0,15.8,0,31.7,0,47.5c-128.9-13.9-233.2-7.5-306.7,1.5c-135.4,16.7-280.1,55.4-386,85.8c-77.1,22.1-155.4,40.2-232.9,61.3
	c-46.8,12.7-71,15.9-93.4,18.4c-104.5,11.6-183.9-11.7-200.7-16.9c-55.7-17.1-100.9-42.9-119.5-53.6c-37.2-21.5-48.3-32.9-81.2-47.5
	c-11.8-5.2-46.7-19.8-108.8-27.6c-81.1-10.2-144.7-0.8-209.9,9.2C135.1,354.9,72.8,367,0,389.2c0-10.8,0-21.7,0-32.5
	c21.4-8.6,50.6-19.2,86-28.8C190,299.6,273.4,300,294.3,300.3z"/>
<path class="st3" d="M2039.1,291.1"/>
<path class="st2" d="M0,356.7"/>
</svg>
