<svg id="Layer_1" data-name="Layer 1" xmlns="http://www.w3.org/2000/svg" viewBox="0 0 1920.5 193.99"><defs><style>.cls-1,.cls-2,.cls-3{fill:#013870;}.cls-1{opacity:0.43;}.cls-1,.cls-2{isolation:isolate;}.cls-2{opacity:0.24;}</style></defs><title>divider</title><path class="cls-1" d="M1920.5,80.16c-410.44,81.33-717.78,57-926.47,17.39C881.59,76.25,769.78,45.48,598.93,43.8,345.42,41.32,137.75,104.82,0,160.13L.5,1H1919.81Z"/><path class="cls-2" d="M1919.81,100.72c-261.71,57.45-472.23,59.85-613.39,52.17C972.79,134.72,827.85,49.58,528.49,62.77c-229.36,10.11-413,72-528.49,120.15L.5,1.14H1919.81Z"/><path class="cls-3" d="M1919.81,43.91C1535.24,86,1232.28,74.69,1019.65,54.59,823.37,36,554.24-4.15,207.1,53.06,119.41,67.51,48.41,84.61.61,97.3Q.51,194,.5,194S.57,129.33.72,0H1919.81Z"/></svg>