<?xml version="1.0" encoding="utf-8"?>
<!-- Generator: Adobe Illustrator 24.0.1, SVG Export Plug-In . SVG Version: 6.00 Build 0)  -->
<svg version="1.1" id="Layer_1" xmlns="http://www.w3.org/2000/svg" xmlns:xlink="http://www.w3.org/1999/xlink" x="0px" y="0px"
	 viewBox="0 0 100 100" style="enable-background:new 0 0 100 100;" xml:space="preserve">
<style type="text/css">
	.st0{fill-rule:evenodd;clip-rule:evenodd;fill:#7510F7;}
</style>
<title>linkedin</title>
<path class="st0" d="M50,0c27.6,0,50,22.4,50,50s-22.4,50-50,50S0,77.6,0,50S22.4,0,50,0z M44.5,41.7h8.7v4.4h0.1
	c1.2-2.2,4.2-4.4,8.6-4.4c9.1,0,10.9,5.7,10.9,13.1v15.1h-9V56.5c0-3.2-0.1-7.3-4.7-7.3s-5.4,3.5-5.4,7.1v13.6h-9L44.5,41.7
	L44.5,41.7z M38.3,33.8c0,2.6-2.1,4.7-4.7,4.7s-4.7-2.1-4.7-4.7c0-2.6,2.1-4.7,4.7-4.7l0,0C36.1,29.1,38.2,31.2,38.3,33.8
	C38.3,33.8,38.3,33.8,38.3,33.8L38.3,33.8z M28.9,41.7h9.4v28.2h-9.4L28.9,41.7z"/>
</svg>
