<?xml version="1.0" encoding="utf-8"?>
<!-- Generator: Adobe Illustrator 24.0.1, SVG Export Plug-In . SVG Version: 6.00 Build 0)  -->
<svg version="1.1" id="Layer_1" xmlns="http://www.w3.org/2000/svg" xmlns:xlink="http://www.w3.org/1999/xlink" x="0px" y="0px"
	 viewBox="0 0 90 90" style="enable-background:new 0 0 90 90;" xml:space="preserve">
<style type="text/css">
	.st0{fill:#7510F7;}
</style>
<title>resume</title>
<path class="st0" d="M29.5,37.7c-0.4-0.1-0.8-0.2-1.2-0.2c-0.6-0.1-1.2-0.1-1.8-0.1h-2v5.7c0.3,0,0.5,0,0.8,0.1h1
	c0.8,0,1.6-0.1,2.4-0.2c0.5-0.1,1-0.3,1.5-0.6c0.4-0.2,0.7-0.6,0.8-1c0.2-0.4,0.3-0.8,0.3-1.3c0-0.5-0.1-1-0.4-1.4
	C30.5,38.3,30,37.9,29.5,37.7z"/>
<path class="st0" d="M45,0C20.1,0,0,20.1,0,45s20.1,45,45,45s45-20.1,45-45v-0.1C90,20.1,69.9,0,45,0C45.1,0,45.1,0,45,0L45,0z
	 M34.2,42.7c-0.4,0.8-1,1.4-1.7,1.9c-0.8,0.5-1.7,0.9-2.7,1.2c-1.2,0.3-2.4,0.4-3.6,0.4h-0.9c-0.3,0-0.5,0-0.8-0.1v7.4H21v-19h5.5
	c0.8,0,1.6,0,2.4,0.1c0.6,0.1,1.2,0.2,1.8,0.4c1.2,0.3,2.2,1,3,1.9c0.7,1,1.1,2.1,1,3.3C34.8,41.1,34.6,41.9,34.2,42.7z M54.4,46.8
	c-0.2,0.8-0.5,1.7-1,2.4c-0.4,0.8-1.1,1.4-1.8,1.9c-0.7,0.6-1.6,1.1-2.5,1.4c-0.9,0.3-1.8,0.5-2.7,0.7c-1.1,0.2-2.3,0.2-3.4,0.2
	h-4.5V34.5h6.4c0.5,0,0.9,0.1,1.3,0.1c0.4,0,0.9,0.1,1.3,0.2c0.4,0.1,0.8,0.2,1.1,0.3c1,0.3,1.9,0.7,2.7,1.3
	c0.8,0.5,1.4,1.1,1.9,1.9C54.8,40.8,55.2,43.9,54.4,46.8z M70.5,37.4h-8.6v4.9h7.3v2.9h-7.3v8.2h-3.5V34.5h12.1V37.4z"/>
<path class="st0" d="M50.2,40.1c-0.3-0.5-0.7-0.9-1.2-1.3c-0.5-0.3-1-0.6-1.6-0.9c-0.6-0.2-1.2-0.4-1.8-0.5
	c-0.7-0.1-1.5-0.1-2.2-0.1h-1.5v13.1h1.4c1.6,0.1,3.3-0.2,4.8-0.8c1-0.5,1.8-1.2,2.3-2.2c0.6-1.2,0.8-2.4,0.8-3.7
	C51.2,42.4,50.9,41.2,50.2,40.1z"/>
</svg>
