<svg id="Layer_1" data-name="Layer 1" xmlns="http://www.w3.org/2000/svg" viewBox="0 0 90 90">
    <defs>
        <style>
            .cls-1 {
                fill: #ffffff;
            }
        </style>
    </defs>
    <title>resume</title>
    <path class="cls-1"
        d="M29.4,37.7a3.78,3.78,0,0,0-1.2-.2,9.88,9.88,0,0,0-1.8-.1h-2v5.7a2.41,2.41,0,0,1,.8.1h1a17.52,17.52,0,0,0,2.4-.2,4.34,4.34,0,0,0,1.5-.6,1.89,1.89,0,0,0,.8-1,2.79,2.79,0,0,0,.3-1.3,2.11,2.11,0,0,0-.4-1.4A3.87,3.87,0,0,0,29.4,37.7Z"
        transform="translate(0.1 0)" />
    <path class="cls-1"
        d="M44.9,0a45,45,0,1,0,45,45v-.1A44.9,44.9,0,0,0,45,0ZM34.1,42.7a5.1,5.1,0,0,1-1.7,1.9,9.49,9.49,0,0,1-2.7,1.2,13.67,13.67,0,0,1-3.6.4h-.9a2,2,0,0,1-.8-.1v7.4H20.9v-19h5.5a17.52,17.52,0,0,1,2.4.1,7.94,7.94,0,0,1,1.8.4,5.81,5.81,0,0,1,3,1.9,5.2,5.2,0,0,1,1,3.3A4.34,4.34,0,0,1,34.1,42.7Zm20.2,4.1a8.72,8.72,0,0,1-1,2.4,5.46,5.46,0,0,1-1.8,1.9A8.55,8.55,0,0,1,49,52.5a17.84,17.84,0,0,1-2.7.7,18.38,18.38,0,0,1-3.4.2H38.4V34.5h6.4c.5,0,.9.1,1.3.1a5.85,5.85,0,0,1,1.3.2c.4.1.8.2,1.1.3a11.39,11.39,0,0,1,2.7,1.3,6.87,6.87,0,0,1,1.9,1.9,10.63,10.63,0,0,1,1.2,8.5Zm16.1-9.4H61.8v4.9h7.3v2.9H61.8v8.2H58.3V34.5H70.4Z"
        transform="translate(0.1 0)" />
    <path class="cls-1"
        d="M50.1,40.1a5,5,0,0,0-1.2-1.3c-.5-.3-1-.6-1.6-.9a7.52,7.52,0,0,0-1.8-.5,14.73,14.73,0,0,0-2.2-.1H41.8V50.4h1.4a12.46,12.46,0,0,0,4.8-.8,4.91,4.91,0,0,0,2.3-2.2,8,8,0,0,0,.8-3.7,6.43,6.43,0,0,0-1-3.6Z"
        transform="translate(0.1 0)" />
</svg>