<?xml version="1.0" encoding="utf-8"?>
<!-- Generator: Adobe Illustrator 24.0.1, SVG Export Plug-In . SVG Version: 6.00 Build 0)  -->
<svg version="1.1" id="Layer_1" xmlns="http://www.w3.org/2000/svg" xmlns:xlink="http://www.w3.org/1999/xlink" x="0px" y="0px"
	 viewBox="0 0 438 511.2" style="enable-background:new 0 0 438 511.2;" xml:space="preserve">
<style type="text/css">
	.st0{fill:#F2045B;}
	.st1{fill:#DFA270;}
	.st2{stroke:#000000;stroke-miterlimit:10;}
	.st3{fill:#DFA270;stroke:#000000;stroke-width:2;stroke-miterlimit:10;}
	.st4{fill:none;stroke:#000000;stroke-miterlimit:10;}
	.st5{fill:#1A1A1A;stroke:#000000;stroke-miterlimit:10;}
	.st6{fill:#A67C52;}
	.st7{fill:#42210B;}
	.st8{fill:#FFFFFF;}
	.st9{fill:#89684E;}
	.st10{stroke:#000000;stroke-width:4.47;}
</style>
<title>Avatar</title>
<ellipse class="st0" cx="219" cy="291.4" rx="219" ry="218.5"/>
<path class="st1" d="M222.5,396.8v0.4c-12.3,0.6-24.6-1.5-36-6.3c-7.8-3.4-15-7.9-21.5-13.4c-4.5-3.6-15.3-13-27-32
	c-7.5-12.2-18.5-33.2-24.5-63c-1.4-0.1-2.7-0.4-4-0.9c-6.3-2.5-8.3-9.5-10-15.4c-7.2-24.2-7.5-18.9-9-28c-1.7-10.2-4.7-27.8,1-29.8
	c4.4-1.6,12.7,5.3,20,15.4c-6-36-2-64.6,3-84.1c2.8-10.9,4.7-18.3,10-26.2c23.3-34.8,82.5-35.5,97.6-35.3
	c-0.1,54.1-0.1,108.2-0.1,162.4C222.1,292.5,222.2,344.7,222.5,396.8z"/>
<path class="st1" d="M219.1,396.8v0.4c12.3,0.6,24.6-1.5,36-6.3c7.8-3.4,15-7.9,21.5-13.4c4.5-3.6,15.3-13,27-32
	c7.5-12.2,18.5-33.2,24.5-63c1.4-0.1,2.7-0.4,4-0.9c6.3-2.5,8.3-9.5,10-15.4c7.2-24.2,7.5-18.9,9-28c1.7-10.2,4.7-27.8-1-29.8
	c-4.4-1.6-12.7,5.3-20,15.4c6-36,2-64.6-3-84.1c-2.8-10.9-4.7-18.3-10-26.2c-23.3-34.8-82.6-35.5-97.6-35.3
	c0.1,54.1,0.1,108.2,0,162.4C219.5,292.6,219.4,344.7,219.1,396.8z"/>
<path class="st2" d="M126,208.1c1.6,1.3,5.6-4.5,14-7c2.7-0.8,7.4-1.8,26,3s26,8.8,35,5c1.8-0.8,4.9-2.1,5-4c0.1-1.4-1.4-4.6-36-13
	c-24.4-6-29.4-5.8-34-3C127.3,194.4,123.9,206.4,126,208.1z"/>
<path id="Hair" class="st2" d="M101.5,214.3C91.3,184.1,92,146,92,146c0.1-15,1.4-30,4-44.8c3-17.1,7.7-33.8,14-50l26-30.1
	c0,0-14,25.8-13,31.8s19-16.4,19-16.4l41-34.4c0,0-28,26.7-23,33.6s77-35.3,77-35.3s-39.4,25.3-35.8,30.4c0.2,0.3,0.4,0.5,0.8,0.6
	c8.1,3.5,49.3-9,71.5-11.8c37.7-4.7,67.5,12.5,67.6,11.9S320,21.8,293.5,24c-15.5,1.3-30.3,6.5-30,8.6c0.2,1.6,8.9,2.4,45-0.6
	c6.9,0.4,13.7,2.1,20,5c10.8,5.1,19.7,13.4,25.5,23.8c-2.5-3-10.6-12.2-24.5-14.8c-5.1-0.9-15.5-1.9-16.5,1
	c-1.4,4.2,18.9,10,39.5,29c16.3,15,26.1,32,25,33c-0.6,0.5-3.9-3.7-13.5-10.7c0,0-5.3-5.4-24-13.4c-8-3.4,11,4.3,20,30.2
	s14,43,14,43c-13.8-30.1-18.4-35.9-20-35.3c-2,0.7,1.7,10.5,0.5,28.2c-0.7,10.9-3,19.9-5,28c-0.8,3.2-1.9,7.4-6,20
	c-7.6,23.6-11.4,35.3-13,35c-2.1-0.4,3.6-19.4,0-46c-1.8-13-3.3-23.2-9.5-34.2c-12.8-22.5-37.6-31-53-36.2c-12.3-4-25.1-6.3-38-6.9
	c-12.1-0.5-24.1,0.3-36,2.6c-9.8,1.7-22.9,4.1-38,11.2c-3.3,1.6-7.4,3.5-11.9,6.1c-8.8,5.1-18.9,12.6-26.1,24
	c-1.4,2.2-2.7,4.6-2.7,4.6c-1.9,2.4-4.4,10-4.8,11.1c-2.7,8.2,6.2,70.9,4,71.5c-0.5,0.1-2.6-3.5-9-19
	C103.9,220.1,102.6,217.2,101.5,214.3z"/>
<path class="st3" d="M171.5,236.1"/>
<path class="st4" d="M348,343.6"/>
<path class="st5" d="M133.2,236.6c-0.8-1.5,14.4-16.6,34.7-16.6c11.4,0,20.3,4.8,23.7,7.9c1.9,1.8,3.5,3.9,4.8,6.2
	c0.8,1.4,2.5,4.5,1.8,5.1s-3.7-2.9-9.8-5.4c-2.9-1.1-5.9-1.9-8.9-2.4c-3.6-0.8-7.3-1.3-10.9-1.5c-5.1-0.1-10.1,0.3-15.1,1.4
	C139.4,234.1,133.6,237.5,133.2,236.6z"/>
<path class="st2" d="M314.4,208.1c-1.6,1.3-5.6-4.5-14-7c-2.7-0.8-7.4-1.8-26,3s-26,8.8-35,5c-1.8-0.8-4.9-2.1-5-4
	c-0.1-1.4,1.4-4.6,36-13c24.5-6,29.4-5.8,34-3C313.1,194.4,316.4,206.4,314.4,208.1z"/>
<path class="st5" d="M307.2,236.6c0.8-1.5-14.4-16.6-34.7-16.6c-11.4,0-20.3,4.8-23.7,7.9c-1.9,1.8-3.5,3.9-4.8,6.2
	c-0.8,1.4-2.5,4.5-1.8,5.1s3.7-2.9,9.8-5.4c2.9-1.1,5.9-1.9,9-2.4c3.6-0.8,7.3-1.3,11-1.4c5-0.1,10.1,0.3,15,1.4
	C301,234.1,306.8,237.5,307.2,236.6z"/>
<path class="st6" d="M198,282.4h42c-5,6-12.2,9.6-20,10C206.9,292.9,198.9,283.5,198,282.4z"/>
<path class="st2" d="M57.5,236.9"/>
<path class="st7" d="M232.8,350.4h-23.6c-5-0.1-9.8-1.8-13.8-4.8c-0.9-0.7-1.8-1.6-2.6-2.4c-5.3-5.7-6.5-13.5-6.8-17.5l0,0
	c-0.1-3.3,2.5-6.1,5.8-6.2h58.4c3.3,0.1,5.9,2.9,5.8,6.2l0,0C256,339.3,245.6,350.4,232.8,350.4z"/>
<path class="st8" d="M194.7,319.4h52.5c0.4,0,0.7,0.3,0.7,0.7v0.1c0,5.1-4.1,9.2-9.2,9.2c0,0,0,0,0,0h-35.7c-5.1,0-9.2-4.1-9.2-9.2
	l0,0l0,0v-0.1C194,319.8,194.3,319.4,194.7,319.4z"/>
<path class="st8" d="M238.8,340.4h-35.7c-3.4,0-6.5,1.9-8.1,4.9l0.4,0.3c3.9,3,8.8,4.7,13.8,4.8h23.6c5.2,0,10.2-1.8,14.1-5.1
	C245.3,342.3,242.2,340.4,238.8,340.4z"/>
<path class="st1" d="M186,376.4h70v33c0,16.6-13.4,30-30,30h-10c-16.6,0-30-13.4-30-30V376.4z"/>
<path class="st9" d="M186,390.4c22.9,6.3,47,6.7,70,1v6c-22.6,8-47.4,8-70,0V390.4z"/>
<path class="st10" d="M219.3,508.9c59.1,0,112.8-24,152-63l-57.6-31.8c-1.8-1-3.8-1.4-5.8-1.1c-0.4,0-0.7-0.1-1.1-0.1h-49.4
	c-0.7,5.6-16.9,10.1-36.6,10.1s-35.9-4.5-36.6-10.1h-49.9c-0.3,0-0.6,0-0.9,0c-0.4,0-0.7,0-1.1,0l0,0c-1.5,0.1-3.1,0.5-4.4,1.2
	l-59.4,32.8C107.4,485.3,160.6,508.9,219.3,508.9z"/>
</svg>
