<?xml version="1.0" encoding="utf-8"?>
<!-- Generator: Adobe Illustrator 24.0.1, SVG Export Plug-In . SVG Version: 6.00 Build 0)  -->
<svg version="1.1" id="Layer_1" xmlns="http://www.w3.org/2000/svg" xmlns:xlink="http://www.w3.org/1999/xlink" x="0px" y="0px"
	 viewBox="0 0 579.4 65.3" style="enable-background:new 0 0 579.4 65.3;" xml:space="preserve">
<style type="text/css">
	.st0{opacity:0.47;fill:#7510F7;enable-background:new    ;}
	.st1{fill:#7510F7;}
	.st2{opacity:0.24;fill:#7510F7;enable-background:new    ;}
</style>
<title>background2</title>
<path class="st0" d="M0,8.4v48.5c128.2-46,221.9-45,284.8-34.8c28.1,4.5,57.6,12.1,106.5,15.3c63.1,4,126.5-1.1,188.1-15.3V8.4"/>
<path class="st1" d="M0,0v48.5C127.5,3.2,221.3,3.8,284.8,13.7c26,4,51.4,10.3,95,13.8c66.9,5.2,134.1,0.6,199.6-13.8V0"/>
<path class="st2" d="M0,0v65.3c127-42.7,221.2-43,284.8-34.8c18.2,2.3,28.7,4.7,52.9,7.7c80.5,9.9,162,7.3,241.8-7.7V0"/>
</svg>
