<?xml version="1.0" encoding="utf-8"?>
<!-- Generator: Adobe Illustrator 24.0.1, SVG Export Plug-In . SVG Version: 6.00 Build 0)  -->
<svg version="1.1" id="Layer_1" xmlns="http://www.w3.org/2000/svg" xmlns:xlink="http://www.w3.org/1999/xlink" x="0px" y="0px"
	 viewBox="0 0 165.2 167.4" style="enable-background:new 0 0 165.2 167.4;" xml:space="preserve">
<style type="text/css">
	.st0{fill:#7510F7;}
</style>
<title>email</title>
<polygon class="st0" points="42.2,60.7 42.2,110.7 69.7,83.1 "/>
<path class="st0" d="M84.6,93.2c-0.7,0.6-1.8,0.6-2.5,0l-9.4-7.6L44.4,114h76.3L93.5,85.6L84.6,93.2z"/>
<polygon class="st0" points="120.3,57.7 44.7,57.7 83.3,89.2 "/>
<polygon class="st0" points="123.1,110.9 123.1,60.4 96.5,83 "/>
<path class="st0" d="M82.6,0C37,0,0,37.5,0,83.7s37,83.7,82.6,83.7s82.6-37.5,82.6-83.7S128.3,0,82.6,0z M127,112.8
	c0,1-0.3,2.1-0.9,2.9c-0.1,0.3-0.3,0.5-0.5,0.7c-0.2,0.1-0.3,0.2-0.5,0.3c-0.9,0.8-2.1,1.2-3.3,1.2H43.4c-2.8,0-5.1-2.3-5.1-5.1
	V58.9c0-2.8,2.3-5.1,5.1-5.1h78.5c2.8,0,5.1,2.3,5.1,5.1V112.8z"/>
</svg>
