<svg id="Layer_1" data-name="Layer 1" xmlns="http://www.w3.org/2000/svg" viewBox="0 0 1929.4 918.43">
    <defs>
        <style>
            .cls-1,
            .cls-2,
            .cls-3 {
                fill: #7510F7;
            }

            .cls-1 {
                opacity: 0.43;
            }

            .cls-1,
            .cls-2 {
                isolation: isolate;
            }

            .cls-2 {
                opacity: 0.24;
            }
        </style>
    </defs>
    <title>fills_green</title>
    <path class="cls-1"
        d="M0,904.85C146.87,735.06,247.84,707.79,315.23,719c34.55,5.74,40.55,18.3,81.27,21.8,116.19,10,154.17-84.87,268-101.46,98.58-14.36,107.4,51.33,225,50.56,77.7-.51,144.86-38.48,276-114.4,165.55-95.84,176.76-131.94,297.65-181.26,30.18-12.31,53.43-19.84,72.84-25.05,47.46-12.74,70.56-21.28,121.16-34.19,49.61-12.66,131.11-83.6,271.7-334.07V919.28H0Z"
        transform="translate(0.54 -0.91)" />
    <path class="cls-2"
        d="M0,919.28a48.9,48.9,0,0,1,0-14.43C2,891.58,9.33,882,21,869.17c14.83-16.27,27.31-27.44,28.6-28.6,24.23-21.71,35.31-35.74,45.95-46.46,45.1-45.42,154.45-104,216-90.39a590.1,590.1,0,0,1,59.82,17.5C385.14,726,394,730,396.5,730.58c123.8,31.06,191.87-120.67,335.41-109.64,85.66,6.58,81.22,62.12,157.59,55.84,59.35-4.88,79-45.45,246.94-109.15,17-6.46,21.66-7.63,29.06-11.85,153-87.1,151.12-130.09,269-173.82,27-10,49.21-15.95,68.6-19.71,60.87-11.81,91-19.41,154-27.29C1712.65,328,1798.33,275.65,1928.85,71V919.28Z"
        transform="translate(0.54 -0.91)" />
    <path class="cls-3"
        d="M0,904.85c104.61-129,194.87-161.35,260.09-165.44C314.38,736,325,753.85,396.5,751.78c31.76-.92,56.33-5.21,77.18-11.38,108.43-32.1,115.74-61,182.66-66.35,53.28-4.26,46.66,19,157.28,30.63,73.8,7.76,109.48.84,122.55-2,48.86-10.78,85.65-32.27,100.09-40.85,80-54.27,189-94.38,284.4-157.53,0,0,45-30.05,91.43-50.81,59-26.43,52.71-13.9,143-49,98.45-38.31,167.79-65.29,228.77-116.43,36.21-30.36,106-99.88,145-234.89q0,304.33,0,608.68V919.28L0,919.34Z"
        transform="translate(0.54 -0.91)" />
</svg>