<?xml version="1.0" encoding="utf-8"?>
<!-- Generator: Adobe Illustrator 24.0.1, SVG Export Plug-In . SVG Version: 6.00 Build 0)  -->
<svg version="1.1" id="Layer_1" xmlns="http://www.w3.org/2000/svg" xmlns:xlink="http://www.w3.org/1999/xlink" x="0px" y="0px"
	 viewBox="0 0 64.2 62.5" style="enable-background:new 0 0 64.2 62.5;" xml:space="preserve">
<style type="text/css">
	.st0{fill-rule:evenodd;clip-rule:evenodd;fill:#7510F7;}
</style>
<title>github</title>
<path class="st0" d="M32.1,0C14.4-0.1,0.1,14.2,0,31.9c0,13.9,8.8,26.2,22,30.5c1.6,0.3,2.2-0.7,2.2-1.5v-6
	c-8.9,1.9-10.8-3.8-10.8-3.8c-1.5-3.7-3.6-4.7-3.6-4.7c-2.9-2,0.2-1.9,0.2-1.9c3.2,0.2,4.9,3.3,4.9,3.3c2.9,4.9,7.5,3.5,9.3,2.7
	c0.1-1.6,0.8-3.1,2-4.3c-7.1-0.8-14.6-3.6-14.6-15.8c0-3.2,1.2-6.2,3.3-8.6C14,19,14.1,16,15.2,13.3c0,0,2.7-0.9,8.8,3.3
	c5.2-1.5,10.8-1.5,16,0c6.1-4.1,8.8-3.3,8.8-3.3c1.1,2.7,1.2,5.7,0.3,8.5c2.2,2.3,3.4,5.4,3.3,8.6c0,12.3-7.5,15-14.6,15.8
	c1.5,1.6,2.3,3.7,2.2,5.9v8.8c0,0.9,0.6,1.8,2.2,1.5C59,56.9,68.1,38.8,62.6,22C58.3,8.8,46,0,32.1,0z"/>
</svg>
